<?xml version="1.0" encoding="UTF-8"?>
<svg id="Layer_1" xmlns="http://www.w3.org/2000/svg" xmlns:xlink="http://www.w3.org/1999/xlink" version="1.1" viewBox="0 0 1000 660">
  <!-- Generator: Adobe Illustrator 30.3.0, SVG Export Plug-In . SVG Version: 2.1.3 Build 182)  -->
  <defs>
    <style>
      .st0, .st1, .st2, .st3, .st4, .st5, .st6, .st7, .st8, .st9, .st10, .st11, .st12, .st13, .st14, .st15, .st16, .st17, .st18, .st19, .st20, .st21, .st22, .st23, .st24, .st25, .st26, .st27, .st28, .st29, .st30, .st31, .st32 {
        fill: none;
      }

      .st0, .st1, .st3, .st21 {
        stroke: #aaa6a0;
      }

      .st0, .st32 {
        stroke-width: 1.5px;
      }

      .st1, .st24 {
        stroke-width: 1.5px;
      }

      .st33 {
        fill: #0a1628;
      }

      .st34 {
        fill: #bcb8b2;
      }

      .st3, .st23 {
        stroke-width: 1.2px;
      }

      .st35 {
        fill: #87837d;
      }

      .st36 {
        fill: #c0bcb6;
      }

      .st37 {
        letter-spacing: .05em;
      }

      .st37, .st38, .st39 {
        font-family: DMSans-SemiBold, 'DM Sans';
        font-size: 19px;
        font-weight: 600;
      }

      .st37, .st38, .st39, .st40 {
        fill: #fff;
      }

      .st38 {
        letter-spacing: .05em;
      }

      .st39 {
        letter-spacing: .05em;
      }

      .st4 {
        stroke-dasharray: 9.91 14.87;
        stroke-width: 1.49px;
      }

      .st4, .st41, .st5, .st7, .st42, .st9, .st11, .st12, .st43, .st44, .st45, .st46, .st47, .st17, .st18, .st19, .st20, .st22, .st23, .st48, .st49 {
        isolation: isolate;
      }

      .st4, .st5, .st6, .st7, .st9, .st10, .st16, .st20, .st22, .st23, .st25, .st26, .st27, .st28, .st29, .st30 {
        stroke: #c9a84c;
      }

      .st4, .st5, .st7, .st11, .st12, .st17, .st18, .st19, .st22, .st23 {
        opacity: .3;
      }

      .st50 {
        stroke: #dab84c;
      }

      .st50, .st48, .st49, .st51 {
        fill: #c9a84c;
      }

      .st41 {
        fill: url(#radial-gradient);
      }

      .st41, .st43, .st44, .st45, .st46, .st47, .st20 {
        opacity: .6;
      }

      .st52 {
        fill: #aaa6a0;
      }

      .st53 {
        fill: #558e55;
      }

      .st54 {
        fill: #a8a49e;
      }

      .st55 {
        stroke: #d8d4ce;
        stroke-width: .8px;
      }

      .st55, .st56 {
        fill: #ccc8c2;
      }

      .st57, .st58 {
        fill: #b8b4ae;
      }

      .st5 {
        stroke-dasharray: 10.03 15.05;
        stroke-width: 1.5px;
      }

      .st59 {
        fill: #aca8a2;
      }

      .st60, .st10 {
        stroke-width: .5px;
      }

      .st60, .st15 {
        stroke: #b8b4ae;
      }

      .st60, .st61 {
        fill: #9e9a94;
      }

      .st62 {
        fill: #c2872e;
      }

      .st63 {
        fill: #4f8a4f;
      }

      .st6 {
        stroke-width: 2.52px;
      }

      .st6, .st20, .st25 {
        stroke-miterlimit: 3.9;
      }

      .st64 {
        fill: #b09870;
      }

      .st7 {
        stroke-dasharray: 10.17 15.26;
        stroke-width: 1.53px;
      }

      .st8 {
        stroke-width: 2.71px;
      }

      .st8, .st9, .st26, .st27, .st28, .st29, .st30, .st31 {
        stroke-miterlimit: 4.33;
      }

      .st8, .st12, .st18, .st31 {
        stroke: #d4443b;
      }

      .st58 {
        stroke: #ccc8c2;
      }

      .st65 {
        stroke: #e04e47;
        stroke-width: 1.25px;
      }

      .st65, .st66 {
        fill: #d4443b;
      }

      .st9, .st49 {
        opacity: .5;
      }

      .st9, .st26 {
        stroke-width: 1.08px;
      }

      .st67 {
        fill: #5a945a;
      }

      .st11 {
        stroke-dasharray: 7.42 11.13;
        stroke-width: 1.11px;
      }

      .st11, .st17, .st19 {
        stroke: #e8d5a0;
      }

      .st12 {
        stroke-dasharray: 4.59 7.65;
        stroke-width: .92px;
      }

      .st43 {
        fill: url(#radial-gradient1);
      }

      .st44 {
        fill: url(#radial-gradient3);
      }

      .st45 {
        fill: url(#radial-gradient5);
      }

      .st46 {
        fill: url(#radial-gradient4);
      }

      .st47 {
        fill: url(#radial-gradient2);
      }

      .st68 {
        fill: #7eb8d0;
      }

      .st13 {
        stroke-width: 3.12px;
      }

      .st13, .st14 {
        stroke: #c0bcb6;
      }

      .st14 {
        stroke-width: 2.5px;
      }

      .st15 {
        stroke-width: 2px;
      }

      .st17 {
        stroke-dasharray: 7.7 11.55;
        stroke-width: 1.16px;
      }

      .st69 {
        opacity: .85;
      }

      .st70 {
        opacity: .04;
      }

      .st18 {
        stroke-dasharray: 5.83 9.72;
        stroke-width: 1.17px;
      }

      .st71 {
        fill: #7a766f;
      }

      .st19 {
        stroke-dasharray: 7.02 10.53;
        stroke-width: 1.05px;
      }

      .st20, .st25 {
        stroke-width: 1.68px;
      }

      .st72 {
        fill: #ada9a3;
      }

      .st21 {
        stroke-width: 1.87px;
      }

      .st73 {
        fill: #b0aca6;
      }

      .st22 {
        stroke-dasharray: 7.58 11.37;
        stroke-width: 1.14px;
      }

      .st23 {
        stroke-dasharray: 8 12;
      }

      .st24 {
        stroke: #fff;
      }

      .st48 {
        opacity: .8;
      }

      .st74 {
        fill: #8a8680;
      }

      .st27 {
        stroke-width: 1.31px;
      }

      .st28, .st31 {
        stroke-width: 1.63px;
      }

      .st29 {
        stroke-width: 1.05px;
      }

      .st30 {
        stroke-width: 1.3px;
      }

      .st75 {
        fill: #f7bc28;
      }

      .st32 {
        stroke: #9e9a94;
      }
    </style>
    <radialGradient id="radial-gradient" cx="-5002.68" cy="3827.46" fx="-5002.68" fy="3827.46" r=".5" gradientTransform="translate(360368 275699.22) scale(72 -72)" gradientUnits="userSpaceOnUse">
      <stop offset="0" stop-color="#c9a84c" stop-opacity=".4"/>
      <stop offset="1" stop-color="#c9a84c" stop-opacity="0"/>
    </radialGradient>
    <radialGradient id="radial-gradient1" cx="-5001.74" cy="3827.01" fx="-5001.74" fy="3827.01" r=".5" gradientTransform="translate(360318 275963.22) scale(72 -72)" gradientUnits="userSpaceOnUse">
      <stop offset="0" stop-color="#c9a84c" stop-opacity=".4"/>
      <stop offset="1" stop-color="#c9a84c" stop-opacity="0"/>
    </radialGradient>
    <radialGradient id="radial-gradient2" cx="-5002.31" cy="3826.87" fx="-5002.31" fy="3826.87" r=".5" gradientTransform="translate(360658 275681.22) scale(72 -72)" gradientUnits="userSpaceOnUse">
      <stop offset="0" stop-color="#c9a84c" stop-opacity=".4"/>
      <stop offset="1" stop-color="#c9a84c" stop-opacity="0"/>
    </radialGradient>
    <radialGradient id="radial-gradient3" cx="-5001.53" cy="3826.78" fx="-5001.53" fy="3826.78" r=".5" gradientTransform="translate(360598 275891.22) scale(72 -72)" gradientUnits="userSpaceOnUse">
      <stop offset="0" stop-color="#c9a84c" stop-opacity=".4"/>
      <stop offset="1" stop-color="#c9a84c" stop-opacity="0"/>
    </radialGradient>
    <radialGradient id="radial-gradient4" cx="-5002.29" cy="3827.06" fx="-5002.29" fy="3827.06" r=".5" gradientTransform="translate(360938 275681.22) scale(72 -72)" gradientUnits="userSpaceOnUse">
      <stop offset="0" stop-color="#c9a84c" stop-opacity=".4"/>
      <stop offset="1" stop-color="#c9a84c" stop-opacity="0"/>
    </radialGradient>
    <radialGradient id="radial-gradient5" cx="-5001.33" cy="3826.59" fx="-5001.33" fy="3826.59" r=".5" gradientTransform="translate(360798 275891.22) scale(72 -72)" gradientUnits="userSpaceOnUse">
      <stop offset="0" stop-color="#c9a84c" stop-opacity=".4"/>
      <stop offset="1" stop-color="#c9a84c" stop-opacity="0"/>
    </radialGradient>
  </defs>
  <rect class="st33" y="0" width="1000" height="660"/>
  <g class="st70">
    <line class="st10" y1="60" y2="660"/>
    <line class="st10" x1="50" y1="60" x2="50" y2="660"/>
    <line class="st10" x1="100" y1="60" x2="100" y2="660"/>
    <line class="st10" x1="150" y1="60" x2="150" y2="660"/>
    <line class="st10" x1="200" y1="60" x2="200" y2="660"/>
    <line class="st10" x1="250" y1="60" x2="250" y2="660"/>
    <line class="st10" x1="300" y1="60" x2="300" y2="660"/>
    <line class="st10" x1="350" y1="60" x2="350" y2="660"/>
    <line class="st10" x1="400" y1="60" x2="400" y2="660"/>
    <line class="st10" x1="450" y1="60" x2="450" y2="660"/>
    <line class="st10" x1="500" y1="60" x2="500" y2="660"/>
    <line class="st10" x1="550" y1="60" x2="550" y2="660"/>
    <line class="st10" x1="600" y1="60" x2="600" y2="660"/>
    <line class="st10" x1="650" y1="60" x2="650" y2="660"/>
    <line class="st10" x1="700" y1="60" x2="700" y2="660"/>
    <line class="st10" x1="750" y1="60" x2="750" y2="660"/>
    <line class="st10" x1="800" y1="60" x2="800" y2="660"/>
    <line class="st10" x1="850" y1="60" x2="850" y2="660"/>
    <line class="st10" x1="900" y1="60" x2="900" y2="660"/>
    <line class="st10" x1="950" y1="60" x2="950" y2="660"/>
    <line class="st10" x1="1000" y1="60" x2="1000" y2="660"/>
    <line class="st10" y1="60" x2="1000" y2="60"/>
    <line class="st10" y1="90" x2="1000" y2="90"/>
    <line class="st10" y1="120" x2="1000" y2="120"/>
    <line class="st10" y1="150" x2="1000" y2="150"/>
    <line class="st10" y1="180" x2="1000" y2="180"/>
    <line class="st10" y1="210" x2="1000" y2="210"/>
    <line class="st10" y1="240" x2="1000" y2="240"/>
    <line class="st10" y1="270" x2="1000" y2="270"/>
    <line class="st10" y1="300" x2="1000" y2="300"/>
    <line class="st10" y1="330" x2="1000" y2="330"/>
    <line class="st10" y1="360" x2="1000" y2="360"/>
    <line class="st10" y1="390" x2="1000" y2="390"/>
    <line class="st10" y1="420" x2="1000" y2="420"/>
    <line class="st10" y1="450" x2="1000" y2="450"/>
    <line class="st10" y1="480" x2="1000" y2="480"/>
    <line class="st10" y1="510" x2="1000" y2="510"/>
    <line class="st10" y1="540" x2="1000" y2="540"/>
    <line class="st10" y1="570" x2="1000" y2="570"/>
    <line class="st10" y1="600" x2="1000" y2="600"/>
    <line class="st10" y1="630" x2="1000" y2="630"/>
    <line class="st10" y1="660" x2="1000" y2="660"/>
  </g>
  <g id="scene-urban-air-taxi" class="st69">
    <g>
      <ellipse class="st36" cx="93.49" cy="225.83" rx="18" ry="12"/>
      <line class="st14" x1="75.49" y1="220.83" x2="59.49" y2="212.83"/>
      <line class="st14" x1="111.49" y1="220.83" x2="127.49" y2="212.83"/>
      <ellipse class="st3" cx="59.49" cy="210.83" rx="14" ry="4"/>
      <ellipse class="st3" cx="127.49" cy="210.83" rx="14" ry="4"/>
      <line class="st0" x1="81.49" y1="236.83" x2="77.49" y2="242.83"/>
      <line class="st0" x1="105.49" y1="236.83" x2="109.49" y2="242.83"/>
      <line class="st32" x1="73.49" y1="242.83" x2="113.49" y2="242.83"/>
      <circle class="st75" cx="93.49" cy="218.83" r="4"/>
      <path d="M87.49,234.83l2-9h8l2,9h-12Z"/>
    </g>
    <path class="st58" d="M79.04,309.94c0-26.67,30-44,90-52,60,8,90,25.33,90,52v30H79.04v-30Z"/>
    <rect class="st60" x="97.04" y="287.94" width="140" height="52"/>
    <rect class="st35" x="114.04" y="297.94" width="28" height="14"/>
    <rect class="st35" x="154.04" y="297.94" width="28" height="14"/>
    <rect class="st35" x="194.04" y="297.94" width="28" height="14"/>
    <rect class="st71" x="131.04" y="319.94" width="14" height="20"/>
    <rect class="st71" x="151.04" y="319.94" width="14" height="20"/>
    <rect class="st71" x="171.04" y="319.94" width="14" height="20"/>
    <rect class="st36" x="281.04" y="254.94" width="16" height="85"/>
    <rect class="st55" x="273.04" y="239.94" width="32" height="20" rx="3" ry="3"/>
    <rect class="st68" x="277.04" y="244.94" width="6" height="10"/>
    <rect class="st68" x="285.04" y="244.94" width="6" height="10"/>
    <rect class="st68" x="293.04" y="244.94" width="6" height="10"/>
    <rect class="st54" x="267.04" y="309.94" width="50" height="30"/>
    <g>
      <ellipse class="st56" cx="196.92" cy="230.69" rx="36.05" ry="6.76" transform="translate(-37.07 37.7) rotate(-10)"/>
      <path class="st57" d="M183.61,233.04l6.79-26.36,9.27.65-7.18,24.14-8.87,1.56Z"/>
      <path class="st57" d="M183.61,233.04l15.4,22.45,8.48-3.78-15.01-20.23-8.87,1.56Z"/>
      <path class="st52" d="M161.42,236.95l1.89-15.2,8.16.85-2.29,12.98-7.77,1.37Z"/>
      <ellipse class="st68" cx="227.98" cy="225.22" rx="6.76" ry="4.51" transform="translate(-35.64 43.01) rotate(-10)"/>
    </g>
  </g>
  <g id="scene-package-delivery" class="st69">
    <rect class="st73" x="114.5" y="509.11" width="170" height="85"/>
    <rect class="st54" x="114.5" y="494.11" width="170" height="20"/>
    <rect class="st35" x="144.5" y="549.11" width="28" height="45"/>
    <rect class="st35" x="182.5" y="549.11" width="28" height="45"/>
    <rect class="st35" x="220.5" y="549.11" width="28" height="45"/>
    <g>
      <ellipse class="st56" cx="121.49" cy="402.03" rx="16" ry="7"/>
      <line class="st14" x1="105.49" y1="402.03" x2="91.49" y2="395.03"/>
      <line class="st14" x1="137.49" y1="402.03" x2="151.49" y2="395.03"/>
      <ellipse class="st3" cx="91.49" cy="393.03" rx="12" ry="3.5"/>
      <ellipse class="st3" cx="151.49" cy="393.03" rx="12" ry="3.5"/>
      <line class="st0" x1="112.49" y1="409.03" x2="107.49" y2="418.03"/>
      <line class="st0" x1="130.49" y1="409.03" x2="135.49" y2="418.03"/>
      <line class="st16" x1="121.49" y1="409.03" x2="121.49" y2="420.03"/>
      <rect class="st50" x="112.49" y="420.03" width="18" height="16" rx="2" ry="2"/>
      <line class="st2" x1="121.49" y1="420.03" x2="121.49" y2="436.03"/>
      <line class="st2" x1="112.49" y1="428.03" x2="130.49" y2="428.03"/>
    </g>
  </g>
  <g id="scene-residential" class="st69">
    <rect class="st57" x="411.83" y="221.83" width="38" height="28"/>
    <path class="st72" d="M405.83,221.83l25-23,25,23h-50Z"/>
    <rect class="st74" x="422.83" y="232.83" width="10" height="17"/>
    <rect class="st36" x="461.83" y="208.83" width="50" height="41"/>
    <path class="st73" d="M455.83,208.83l31-27,31,27h-62Z"/>
    <rect class="st74" x="479.83" y="232.83" width="13" height="17"/>
    <rect class="st68" x="466.83" y="216.83" width="9" height="9"/>
    <rect class="st34" x="521.83" y="204.83" width="55" height="45"/>
    <path class="st72" d="M515.83,204.83l33-28,34,28h-67Z"/>
    <rect class="st68" x="527.83" y="212.83" width="9" height="9"/>
    <rect class="st68" x="541.83" y="212.83" width="9" height="9"/>
    <rect class="st68" x="557.83" y="212.83" width="9" height="9"/>
    <rect class="st74" x="543.83" y="232.83" width="12" height="17"/>
    <circle class="st67" cx="454.83" cy="234.83" r="10"/>
    <circle class="st63" cx="516.83" cy="236.83" r="8"/>
    <circle class="st53" cx="586.83" cy="234.83" r="11"/>
    <line class="st2" x1="401.83" y1="249.83" x2="601.83" y2="249.83"/>
  </g>
  <g id="scene-city-center" class="st69">
    <rect class="st57" x="712.49" y="420.09" width="32" height="120"/>
    <rect class="st73" x="749.49" y="398.09" width="28" height="142"/>
    <rect class="st54" x="782.49" y="440.09" width="22" height="100"/>
    <rect class="st36" x="809.49" y="380.09" width="38" height="160"/>
    <rect class="st59" x="852.49" y="420.09" width="24" height="120"/>
    <rect class="st61" x="881.49" y="450.09" width="20" height="90"/>
    <rect class="st51" x="717.49" y="430.09" width="6" height="6"/>
    <rect class="st51" x="725.49" y="430.09" width="6" height="6"/>
    <rect class="st51" x="717.49" y="442.09" width="6" height="6"/>
    <rect x="814.49" y="390.09" width="7" height="7"/>
    <rect x="825.49" y="390.09" width="7" height="7"/>
    <rect x="814.49" y="406.09" width="7" height="7"/>
    <rect x="825.49" y="406.09" width="7" height="7"/>
    <rect x="814.49" y="422.09" width="7" height="7"/>
    <rect class="st62" x="906.49" y="420.09" width="48" height="120" rx="2" ry="2"/>
    <rect x="912.49" y="430.09" width="9" height="9"/>
    <rect x="927.49" y="430.09" width="9" height="9"/>
    <rect x="912.49" y="446.09" width="9" height="9"/>
    <rect x="927.49" y="446.09" width="9" height="9"/>
    <rect x="912.49" y="462.09" width="9" height="9"/>
    <rect x="927.49" y="462.09" width="9" height="9"/>
  </g>
  <g id="scene-medical" class="st69">
    <rect class="st57" x="489.68" y="475.05" width="112.25" height="99.78"/>
    <rect class="st36" x="489.68" y="462.58" width="112.25" height="17.46"/>
    <rect class="st66" x="527.1" y="440.13" width="37.42" height="27.44" rx="3.74" ry="3.74"/>
    <rect class="st40" x="540.82" y="445.12" width="9.98" height="17.46"/>
    <rect class="st40" x="532.09" y="451.36" width="27.44" height="4.99"/>
    <rect class="st68" x="499.66" y="485.03" width="12.47" height="12.47"/>
    <rect class="st68" x="519.62" y="485.03" width="12.47" height="12.47"/>
    <rect class="st68" x="539.57" y="485.03" width="12.47" height="12.47"/>
    <rect class="st68" x="559.53" y="485.03" width="12.47" height="12.47"/>
    <rect class="st68" x="579.48" y="485.03" width="12.47" height="12.47"/>
    <rect class="st68" x="499.66" y="512.47" width="12.47" height="12.47"/>
    <rect class="st68" x="519.62" y="512.47" width="12.47" height="12.47"/>
    <rect class="st68" x="539.57" y="512.47" width="12.47" height="12.47"/>
    <rect class="st68" x="559.53" y="512.47" width="12.47" height="12.47"/>
    <rect class="st68" x="579.48" y="512.47" width="12.47" height="12.47"/>
    <rect class="st74" x="529.59" y="537.42" width="32.43" height="37.42"/>
    <g>
      <ellipse class="st56" cx="446.46" cy="459.18" rx="19.96" ry="8.73"/>
      <line class="st13" x1="426.51" y1="459.18" x2="409.05" y2="450.45"/>
      <line class="st13" x1="466.42" y1="459.18" x2="483.88" y2="450.45"/>
      <ellipse class="st1" cx="409.05" cy="447.95" rx="14.97" ry="4.37"/>
      <ellipse class="st1" cx="483.88" cy="447.95" rx="14.97" ry="4.37"/>
      <line class="st21" x1="435.24" y1="467.91" x2="429" y2="479.13"/>
      <line class="st21" x1="457.69" y1="467.91" x2="463.92" y2="479.13"/>
      <g>
        <path class="st65" d="M446.46,494.1c0-8.73-12.47-11.23-12.47-2.49,0,6.24,12.47,14.97,12.47,14.97,0,0,12.47-8.73,12.47-14.97,0-8.73-12.47-6.24-12.47,2.49Z"/>
        <path class="st24" d="M438.98,495.35h3.74l3.74-6.24,3.74,12.47,2.49-6.24h2.49"/>
      </g>
    </g>
  </g>
  <g id="scene-rural" class="st69">
    <rect class="st34" x="723.49" y="188.08" width="55" height="45"/>
    <path class="st64" d="M717.49,188.08l33-27,34,27h-67Z"/>
    <rect class="st74" x="741.49" y="209.08" width="16" height="24"/>
    <rect class="st57" x="788.49" y="171.08" width="20" height="62" rx="5" ry="5"/>
    <ellipse class="st72" cx="798.49" cy="171.08" rx="10" ry="6"/>
    <line class="st14" x1="828.49" y1="165.08" x2="828.49" y2="233.08"/>
    <g>
      <line class="st15" x1="828.49" y1="165.08" x2="812.49" y2="145.08"/>
      <line class="st15" x1="828.49" y1="165.08" x2="848.49" y2="153.08"/>
      <line class="st15" x1="828.49" y1="165.08" x2="838.49" y2="185.08"/>
      <line class="st15" x1="828.49" y1="165.08" x2="808.49" y2="175.08"/>
    </g>
    <path class="st67" d="M703.49,213.08l10-35,10,35h-20Z"/>
    <path class="st63" d="M691.49,218.08l7-27,7,27h-14Z"/>
    <circle class="st53" cx="853.49" cy="215.08" r="10"/>
    <circle class="st63" cx="871.49" cy="219.08" r="7"/>
    <line class="st2" x1="688.49" y1="233.08" x2="883.49" y2="233.08"/>
  </g>
  <path class="st4" d="M178.46,124.98c73.69,95.55,172.24,171.99,295.64,229.32"/>
  <path class="st5" d="M170.07,119.1c109.29,28.6,219.27,34.95,329.93,19.06"/>
  <path class="st22" d="M186.14,133.08c192.45-52,384.9-57.32,577.35-15.95"/>
  <path class="st23" d="M483.49,133.08c93.33,16.67,186.67,16.67,280,0"/>
  <path class="st7" d="M483.49,133.08c101.59,52.85,172,127.84,211.22,224.97"/>
  <path class="st18" d="M763.49,133.08c-78.6,54.15-174.73,132.04-288.4,233.67"/>
  <path class="st19" d="M185.16,413.28c89.05-29.26,185.7-47.11,289.93-53.56"/>
  <path class="st11" d="M180.83,408.94c76.8-63.1,178.8-152.97,306.01-269.61"/>
  <path class="st17" d="M185.16,413.28c166.66-65.58,359.44-158.97,578.33-280.19"/>
  <path class="st12" d="M475.09,359.72c21.81-93.9,32.54-170.34,32.18-229.3"/>
  <g id="node-urban-air-taxi">
    <circle class="st41" cx="174.83" cy="121.83" r="36"/>
    <circle cx="174.83" cy="121.83" r="26"/>
    <g>
      <path class="st6" d="M161.68,120.78h5.03l3.36-6.71h10.07l3.36,6.71h5.03"/>
      <circle class="st48" cx="175.1" cy="120.78" r="4.2"/>
      <line class="st20" x1="160" y1="114.07" x2="190.2" y2="114.07"/>
      <line class="st25" x1="175.1" y1="114.07" x2="175.1" y2="116.59"/>
      <line class="st25" x1="171.74" y1="124.98" x2="168.39" y2="130.85"/>
      <line class="st25" x1="178.46" y1="124.98" x2="181.81" y2="130.85"/>
    </g>
    <g class="st42">
      <text class="st39" transform="translate(105.49 170.08)"><tspan x="0" y="0">URBAN AIR TAXI</tspan></text>
    </g>
  </g>
  <g id="node-package-delivery">
    <circle class="st43" cx="192.74" cy="418.69" r="36"/>
    <circle cx="192.74" cy="418.69" r="26"/>
    <g>
      <rect class="st28" x="185.16" y="414.36" width="15.17" height="13" rx="1.08" ry="1.08"/>
      <line class="st9" x1="185.16" y1="419.78" x2="200.33" y2="419.78"/>
      <line class="st9" x1="192.74" y1="414.36" x2="192.74" y2="427.36"/>
      <path class="st28" d="M188.41,410.03l4.33-2.17,4.33,2.17"/>
      <line class="st26" x1="192.74" y1="407.86" x2="192.74" y2="414.36"/>
    </g>
    <g class="st42">
      <text class="st39" transform="translate(105.49 478.04)"><tspan x="0" y="0">PACKAGE DELIVERY</tspan></text>
    </g>
  </g>
  <g id="node-residential">
    <circle class="st47" cx="491.83" cy="146.83" r="36"/>
    <circle cx="491.83" cy="146.83" r="26"/>
    <g>
      <path class="st28" d="M482.08,146.83l9.75-8.67,9.75,8.67"/>
      <rect class="st30" x="485.33" y="146.83" width="13" height="8.67"/>
      <rect class="st26" x="489.67" y="150.08" width="4.33" height="5.42"/>
    </g>
    <g class="st42">
      <text class="st37" transform="translate(396.48 277.14)"><tspan x="0" y="0">RESIDENTIAL AREAS</tspan></text>
    </g>
  </g>
  <g id="node-medical">
    <circle class="st44" cx="487.76" cy="362.72" r="36"/>
    <circle cx="487.76" cy="362.72" r="26"/>
    <g>
      <rect class="st31" x="479.1" y="354.05" width="17.33" height="17.33" rx="3.25" ry="3.25"/>
      <line class="st8" x1="487.76" y1="358.39" x2="487.76" y2="367.05"/>
      <line class="st8" x1="483.43" y1="362.72" x2="492.1" y2="362.72"/>
    </g>
    <g class="st42">
      <text class="st38" transform="translate(406.84 413.78)"><tspan x="0" y="0">MEDICAL SUPPLIES</tspan></text>
    </g>
  </g>
  <g id="node-rural">
    <circle class="st46" cx="773.2" cy="132.58" r="36"/>
    <circle cx="773.2" cy="132.58" r="26"/>
    <g>
      <path class="st30" d="M762.37,141.25l10.83-15.17,10.83,15.17"/>
      <line class="st30" x1="779.7" y1="141.25" x2="779.7" y2="130.42"/>
      <line class="st26" x1="777.53" y1="132.58" x2="781.87" y2="132.58"/>
      <circle class="st49" cx="768.87" cy="136.92" r="1.08"/>
    </g>
    <g class="st42">
      <text class="st37" transform="translate(678.95 258.38)"><tspan x="0" y="0">RURAL &amp; AGRICULTURE</tspan></text>
    </g>
  </g>
  <g id="node-city-center">
    <circle class="st45" cx="702" cy="377.09" r="36"/>
    <circle cx="702" cy="377.09" r="26"/>
    <g>
      <rect class="st27" x="688.17" y="372.43" width="6.55" height="14.41"/>
      <rect class="st27" x="696.02" y="364.57" width="6.55" height="22.27"/>
      <rect class="st27" x="703.88" y="368.5" width="6.55" height="18.34"/>
      <rect class="st29" x="711.74" y="375.05" width="3.93" height="11.79"/>
    </g>
    <g class="st42">
      <text class="st39" transform="translate(726.49 358.06)"><tspan x="0" y="0">CITY CENTER</tspan></text>
    </g>
  </g>
</svg>